{"accessors":[{"bufferView":2,"componentType":5126,"count":722,"max":[3.8200900554656982,-9.9661283493042,0.12754100561141968],"min":[3.142256021499634,-10.643961906433105,0.06477099657058716],"type":"VEC3","byteOffset":0},{"bufferView":2,"byteOffset":8664,"componentType":5126,"count":722,"max":[0.5432548522949219,0.7151727676391602,1],"min":[-0.5432500243186951,-0.7151801586151123,-1],"type":"VEC3"},{"bufferView":3,"componentType":5126,"count":722,"max":[1,0.1792840212583542,0.5432464480400085,1],"min":[0.8395547866821289,-0.1805185228586197,-0.5432412624359131,-1],"type":"VEC4","byteOffset":0},{"bufferView":1,"componentType":5126,"count":722,"max":[0.887919008731842,0.8932430148124695],"min":[0.08351100236177444,0.08883500099182129],"type":"VEC2","byteOffset":0},{"bufferView":0,"componentType":5125,"count":4080,"max":[721],"min":[0],"type":"SCALAR","byteOffset":0},{"bufferView":2,"byteOffset":17328,"componentType":5126,"count":280,"max":[3.823638916015625,-9.962578773498535,0.08843600004911423],"min":[3.1387059688568115,-10.647510528564453,0.0655829980969429],"type":"VEC3"},{"bufferView":2,"byteOffset":20688,"componentType":5126,"count":280,"max":[0.9999526143074036,0.9999526143074036,0.8205941319465637],"min":[-0.9999526143074036,-0.9999527335166931,-0.8395761847496033],"type":"VEC3"},{"bufferView":3,"byteOffset":11552,"componentType":5126,"count":280,"max":[0.9985042810440063,0.39414340257644653,0.9999526143074036,1],"min":[-0.36500006914138794,-0.4005706012248993,-0.9999520182609558,-1],"type":"VEC4"},{"bufferView":0,"byteOffset":16320,"componentType":5125,"count":1440,"max":[279],"min":[0],"type":"SCALAR"},{"bufferView":2,"byteOffset":24048,"componentType":5126,"count":200,"max":[3.819490909576416,-9.966727256774902,0.09027499705553055],"min":[3.1428539752960205,-10.643363952636719,0.08843600004911423],"type":"VEC3"},{"bufferView":2,"byteOffset":26448,"componentType":5126,"count":200,"max":[0.5715189576148987,0.7151727676391602,0.9976663589477539],"min":[-0.5715118646621704,-0.7151801586151123,0.6989401578903198],"type":"VEC3"},{"bufferView":3,"byteOffset":16032,"componentType":5126,"count":200,"max":[1,0.10378331691026688,0.5715029835700989,1],"min":[0.820576548576355,-0.102046437561512,-0.571510374546051,1],"type":"VEC4"},{"bufferView":0,"byteOffset":22080,"componentType":5125,"count":960,"max":[199],"min":[0],"type":"SCALAR"}],"asset":{"extras":{"author":"maypassamon (https://sketchfab.com/maypassamon)","license":"CC-BY-4.0 (http://creativecommons.org/licenses/by/4.0/)","source":"https://sketchfab.com/models/3e9b9f7841f54577829c0a9167b167d7","title":"Pizza"},"generator":"Sketchfab-3.20.7","version":"2.0"},"bufferViews":[{"buffer":0,"byteLength":25920,"byteOffset":0,"name":"floatBufferViews","target":34963},{"buffer":0,"byteLength":5776,"byteOffset":25920,"byteStride":8,"name":"floatBufferViews","target":34962},{"buffer":0,"byteLength":28848,"byteOffset":31696,"byteStride":12,"name":"floatBufferViews","target":34962},{"buffer":0,"byteLength":19232,"byteOffset":60544,"byteStride":16,"name":"floatBufferViews","target":34962},{"buffer":0,"byteOffset":79776,"byteLength":127360}],"buffers":[{"byteLength":207136,"uri":"data:application/octet-stream;base64,"}],"images":[{"bufferView":4,"mimeType":"image/jpeg"}],"materials":[{"doubleSided":true,"emissiveFactor":[0,0,0],"name":"lambert5SG","pbrMetallicRoughness":{"baseColorFactor":[1,1,1,1],"baseColorTexture":{"index":0,"texCoord":0},"metallicFactor":0.2804545547,"roughnessFactor":1},"alphaMode":"OPAQUE"},{"doubleSided":true,"emissiveFactor":[0,0,0],"name":"lambert6SG","pbrMetallicRoughness":{"baseColorFactor":[1,0.89,0.51,1],"metallicFactor":0,"roughnessFactor":1},"alphaMode":"OPAQUE"},{"doubleSided":true,"emissiveFactor":[0,0,0],"name":"lambert7SG","pbrMetallicRoughness":{"baseColorFactor":[1,0.89,0.51,1],"metallicFactor":0,"roughnessFactor":1},"alphaMode":"OPAQUE"}],"meshes":[{"primitives":[{"attributes":{"NORMAL":1,"POSITION":0,"TANGENT":2,"TEXCOORD_0":3},"indices":4,"material":0,"mode":4}]},{"primitives":[{"attributes":{"NORMAL":6,"POSITION":5,"TANGENT":7},"indices":8,"material":1,"mode":4}]},{"primitives":[{"attributes":{"NORMAL":10,"POSITION":9,"TANGENT":11},"indices":12,"material":2,"mode":4}]}],"nodes":[{"children":[1],"name":"RootNode (gltf orientation matrix)","rotation":[-0.7071067811865475,0,0,0.7071067811865476],"translation":[0,0,0],"scale":[1,1,1]},{"children":[2],"name":"RootNode (model correction matrix)"},{"children":[3,4,5],"name":"Pizza.obj.cleaner.materialmerger.gles"},{"mesh":0,"name":""},{"mesh":1,"name":""},{"mesh":2,"name":""}],"samplers":[{"magFilter":9729,"minFilter":9987,"wrapS":10497,"wrapT":10497}],"scene":0,"scenes":[{"name":"OSG_Scene","nodes":[0]}],"textures":[{"sampler":0,"source":0}]}
